<svg width="91" height="24" viewBox="0 0 91 24" fill="none" xmlns="http://www.w3.org/2000/svg">
<path d="M21.336 23H0.344L10.84 0.247999L21.336 23ZM2.2 21.816H19.48L10.84 3.064L2.2 21.816ZM43.7435 23H26.6235V0.727999H35.2955C37.1515 0.727999 38.6662 1.05867 39.8395 1.72C40.9915 2.36 41.8875 3.23467 42.5275 4.344C43.1675 5.45333 43.4875 6.68 43.4875 8.024C43.4875 9.688 42.9755 11.1813 41.9515 12.504C40.9275 13.8053 39.6368 14.6693 38.0795 15.096L43.7435 23ZM28.6395 1.912L37.3435 14.072C38.7728 13.7733 39.9568 13.0587 40.8955 11.928C41.8342 10.7973 42.3035 9.496 42.3035 8.024C42.3035 6.85067 42.0155 5.784 41.4395 4.824C40.8635 3.864 40.0528 3.128 39.0075 2.616C38.0688 2.14667 36.8422 1.912 35.3275 1.912H28.6395ZM27.8075 2.68V14.168H36.0315L27.8075 2.68ZM27.8075 21.816H41.5035L36.8315 15.32L35.8395 15.352H27.8075V21.816ZM67.399 14.584C67.4203 17.3787 66.6203 19.5653 64.999 21.144C63.3777 22.7013 61.1483 23.48 58.311 23.48C56.6257 23.48 55.0683 23.096 53.639 22.328C52.231 21.56 51.111 20.472 50.279 19.064C49.447 17.656 49.031 16.0347 49.031 14.2V9.528C49.031 7.71467 49.4257 6.104 50.215 4.696C51.0257 3.288 52.1243 2.2 53.511 1.432C54.919 0.642666 56.487 0.247999 58.215 0.247999C61.0523 0.247999 63.271 1.02667 64.871 2.584C66.4923 4.12 67.3137 6.296 67.335 9.112H61.575C61.5537 8.024 61.255 7.18133 60.679 6.584C60.1243 5.98667 59.303 5.688 58.215 5.688C57.2337 5.688 56.423 5.99733 55.783 6.616C55.143 7.23467 54.823 8.10933 54.823 9.24V14.456C54.823 15.5867 55.1537 16.472 55.815 17.112C56.4977 17.7307 57.3297 18.04 58.311 18.04C60.551 18.04 61.671 16.888 61.671 14.584H67.399ZM73.3265 23V0.727999H74.5105V7.032C76.7078 7.032 78.7878 7.45867 80.7505 8.312C82.7132 9.144 84.4305 10.3173 85.9025 11.832C87.3745 13.3253 88.5052 15.0427 89.2945 16.984V0.727999H90.4785V23H89.2945C89.2945 20.3333 88.6332 17.8693 87.3105 15.608C85.9878 13.3253 84.1852 11.5227 81.9025 10.2C79.6412 8.87733 77.1772 8.216 74.5105 8.216V23H73.3265Z" fill="white"/>
</svg>
